<?xml version="1.0" encoding="utf-8"?><svg xmlns="http://www.w3.org/2000/svg" xmlns:xlink="http://www.w3.org/1999/xlink"><symbol viewBox="0 0 10 11" id="i-delete" xmlns="http://www.w3.org/2000/svg"><g clip-path="url(#aclip0)"><path fill-rule="evenodd" clip-rule="evenodd" d="M6.186 5.357l3.56-3.634a.849.849 0 000-1.211.808.808 0 00-1.187 0L5 4.146 1.44.512a.808.808 0 00-1.186 0 .849.849 0 000 1.211l3.56 3.634-3.56 3.634a.849.849 0 000 1.212.808.808 0 001.187 0L5 6.568l3.56 3.635a.808.808 0 001.186 0 .849.849 0 000-1.212l-3.56-3.634z"/></g><defs><clipPath id="aclip0"><path transform="translate(0 .252)" d="M0 0h10v10.21H0z"/></clipPath></defs></symbol><symbol viewBox="0 0 16 16" id="skype" xmlns="http://www.w3.org/2000/svg"><path d="M15.524 9.689c1.157-5.201-3.4-9.926-8.75-9.019C3.867-1.133 0 .905 0 4.36c0 .804.222 1.557.607 2.205-1.075 5.213 3.519 9.87 8.866 8.901 3.78 1.999 7.956-1.987 6.05-5.777zm-5.087 3.136c-1.404.578-3.714.58-5.112-.151-1.994-1.063-2.348-3.455-.628-3.455 1.296 0 .885 1.51 2.194 2.127.6.277 1.892.306 2.643-.2.741-.496.673-1.277.27-1.65-1.067-.985-4.122-.594-5.519-2.32-.607-.748-.721-2.068.025-3.026 1.3-1.673 5.115-1.774 6.755-.511 1.514 1.172 1.106 2.727-.117 2.727-1.47 0-.697-1.923-3.07-1.923-1.72 0-2.397 1.224-1.185 1.819 1.642.816 5.827.543 5.827 3.731-.003 1.326-.816 2.315-2.083 2.832z"/></symbol><symbol viewBox="0 0 17 18" id="wats" xmlns="http://www.w3.org/2000/svg"><path d="M8.502 0h-.004C3.81 0 0 4.037 0 9c0 1.969.6 3.793 1.618 5.275L.558 17.62l3.268-1.106A8.097 8.097 0 008.502 18C13.19 18 17 13.962 17 9s-3.811-9-8.498-9zm4.946 12.71c-.205.612-1.019 1.12-1.668 1.27-.444.1-1.024.18-2.977-.678-2.498-1.096-4.107-3.783-4.232-3.958-.12-.174-1.01-1.423-1.01-2.714 0-1.292.62-1.92.87-2.19.205-.222.544-.324.869-.324.105 0 .2.006.285.01.25.012.375.027.54.445.204.523.704 1.815.763 1.947.06.133.121.313.036.487-.08.18-.15.26-.275.413-.125.153-.244.27-.37.434-.114.143-.244.296-.1.56.145.26.644 1.122 1.38 1.815.948.895 1.718 1.18 1.993 1.302.205.09.45.069.6-.1.19-.217.424-.577.663-.932.17-.254.385-.285.61-.195.23.084 1.444.72 1.694.851.25.133.414.196.475.307.06.112.06.635-.146 1.25z"/></symbol></svg>