<svg width="473" height="64" viewBox="0 0 473 64" fill="none" xmlns="http://www.w3.org/2000/svg">
<path d="M318.765 16.0469V26H317.453V17.127H313.884L313.707 21.0713C313.638 22.3929 313.502 23.3864 313.297 24.0518C313.096 24.7171 312.8 25.207 312.408 25.5215C312.016 25.8314 311.492 25.9909 310.836 26H310.405V24.9268L310.678 24.9131C311.102 24.8812 311.428 24.7445 311.656 24.5029C311.884 24.2568 312.057 23.8672 312.175 23.334C312.294 22.8008 312.378 21.9805 312.428 20.873L312.633 16.0469H318.765ZM325.738 18.6035H327.003V26H325.738V20.6064L322.327 26H321.062V18.6035H322.327V24.0039L325.738 18.6035ZM329.142 18.6035H330.414V24.9678H333.818V18.6035H335.083V24.9678H335.964L335.841 28.1943H334.707V26H329.142V18.6035ZM340.401 26.1367C339.398 26.1367 338.583 25.8086 337.954 25.1523C337.325 24.4915 337.01 23.6097 337.01 22.5068V22.2744C337.01 21.5407 337.149 20.8867 337.427 20.3125C337.71 19.7337 338.102 19.2826 338.603 18.959C339.109 18.6309 339.656 18.4668 340.244 18.4668C341.205 18.4668 341.953 18.7835 342.486 19.417C343.019 20.0505 343.286 20.9574 343.286 22.1377V22.6641H338.275C338.293 23.3932 338.505 23.9834 338.911 24.4346C339.321 24.8812 339.84 25.1045 340.469 25.1045C340.916 25.1045 341.294 25.0133 341.604 24.8311C341.914 24.6488 342.185 24.4072 342.418 24.1064L343.19 24.708C342.57 25.6605 341.641 26.1367 340.401 26.1367ZM340.244 19.5059C339.733 19.5059 339.305 19.6927 338.959 20.0664C338.612 20.4355 338.398 20.9551 338.316 21.625H342.021V21.5293C341.985 20.8867 341.811 20.39 341.502 20.0391C341.192 19.6836 340.772 19.5059 340.244 19.5059ZM350.798 26H349.534V22.8418H346.136V26H344.865V18.6035H346.136V21.8096H349.534V18.6035H350.798V26ZM356.903 20.627C356.903 20.2806 356.771 20.0072 356.506 19.8066C356.242 19.6016 355.88 19.499 355.42 19.499C354.973 19.499 354.599 19.6152 354.298 19.8477C354.002 20.0801 353.854 20.3535 353.854 20.668H352.596C352.596 20.0254 352.865 19.499 353.403 19.0889C353.941 18.6787 354.613 18.4736 355.42 18.4736C356.285 18.4736 356.96 18.6605 357.443 19.0342C357.926 19.4033 358.168 19.932 358.168 20.6201C358.168 20.9528 358.067 21.2581 357.867 21.5361C357.666 21.8141 357.381 22.0352 357.012 22.1992C357.874 22.4909 358.304 23.0651 358.304 23.9219C358.304 24.6009 358.042 25.1387 357.518 25.5352C356.994 25.9316 356.295 26.1299 355.42 26.1299C354.567 26.1299 353.863 25.9225 353.307 25.5078C352.756 25.0885 352.48 24.5234 352.48 23.8125H353.738C353.738 24.1725 353.897 24.4824 354.216 24.7422C354.54 24.9974 354.941 25.125 355.42 25.125C355.903 25.125 356.292 25.0133 356.589 24.79C356.885 24.5667 357.033 24.2773 357.033 23.9219C357.033 23.5072 356.908 23.2109 356.657 23.0332C356.411 22.8509 356.026 22.7598 355.502 22.7598H354.237V21.6934H355.611C356.472 21.6706 356.903 21.3151 356.903 20.627ZM364.73 18.6035H365.995V26H364.73V20.6064L361.319 26H360.054V18.6035H361.319V24.0039L364.73 18.6035ZM373.678 18.6035V26H372.407V23.1221H370.5L368.756 26H367.389L369.249 22.9307C368.775 22.7575 368.41 22.4909 368.155 22.1309C367.904 21.7663 367.779 21.3424 367.779 20.8594C367.779 20.1849 368.032 19.6426 368.538 19.2324C369.044 18.8177 369.72 18.6081 370.568 18.6035H373.678ZM369.05 20.873C369.05 21.2331 369.173 21.5247 369.42 21.748C369.666 21.9668 369.991 22.0785 370.397 22.083H372.407V19.6289H370.589C370.119 19.6289 369.745 19.7451 369.467 19.9775C369.189 20.2054 369.05 20.5039 369.05 20.873ZM383.44 24.3252L385.956 18.6035H387.535V26H386.27V20.6201L383.878 26H383.003L380.562 20.5039V26H379.297V18.6035H380.938L383.44 24.3252ZM394.357 18.6035H395.622V26H394.357V20.6064L390.946 26H389.681V18.6035H390.946V24.0039L394.357 18.6035ZM403.695 26H402.43V22.8418H399.033V26H397.761V18.6035H399.033V21.8096H402.43V18.6035H403.695V26ZM410.517 18.6035H411.782V26H410.517V20.6064L407.106 26H405.841V18.6035H407.106V24.0039L410.517 18.6035ZM416.779 25.1045C417.23 25.1045 417.624 24.9678 417.962 24.6943C418.299 24.4209 418.486 24.0791 418.522 23.6689H419.718C419.696 24.0928 419.55 24.4961 419.281 24.8789C419.012 25.2617 418.652 25.5671 418.201 25.7949C417.754 26.0228 417.28 26.1367 416.779 26.1367C415.772 26.1367 414.97 25.8018 414.373 25.1318C413.78 24.4574 413.484 23.5368 413.484 22.3701V22.1582C413.484 21.4382 413.616 20.7979 413.88 20.2373C414.145 19.6768 414.523 19.2415 415.015 18.9316C415.512 18.6217 416.098 18.4668 416.772 18.4668C417.602 18.4668 418.29 18.7152 418.837 19.2119C419.388 19.7087 419.682 20.3535 419.718 21.1465H418.522C418.486 20.668 418.303 20.276 417.975 19.9707C417.652 19.6608 417.251 19.5059 416.772 19.5059C416.13 19.5059 415.63 19.7383 415.275 20.2031C414.924 20.6634 414.749 21.3311 414.749 22.2061V22.4453C414.749 23.2975 414.924 23.9538 415.275 24.4141C415.626 24.8743 416.127 25.1045 416.779 25.1045ZM426.636 19.6289H424.155V26H422.89V19.6289H420.457V18.6035H426.636V19.6289ZM430.389 26.1367C429.387 26.1367 428.571 25.8086 427.942 25.1523C427.313 24.4915 426.999 23.6097 426.999 22.5068V22.2744C426.999 21.5407 427.138 20.8867 427.416 20.3125C427.698 19.7337 428.09 19.2826 428.591 18.959C429.097 18.6309 429.644 18.4668 430.232 18.4668C431.194 18.4668 431.941 18.7835 432.474 19.417C433.007 20.0505 433.274 20.9574 433.274 22.1377V22.6641H428.263C428.282 23.3932 428.493 23.9834 428.899 24.4346C429.309 24.8812 429.829 25.1045 430.458 25.1045C430.904 25.1045 431.283 25.0133 431.592 24.8311C431.902 24.6488 432.173 24.4072 432.406 24.1064L433.178 24.708C432.559 25.6605 431.629 26.1367 430.389 26.1367ZM430.232 19.5059C429.722 19.5059 429.293 19.6927 428.947 20.0664C428.601 20.4355 428.386 20.9551 428.304 21.625H432.009V21.5293C431.973 20.8867 431.8 20.39 431.49 20.0391C431.18 19.6836 430.761 19.5059 430.232 19.5059ZM440.992 22.3838C440.992 23.5094 440.734 24.4163 440.219 25.1045C439.704 25.7926 439.007 26.1367 438.128 26.1367C437.23 26.1367 436.523 25.8519 436.008 25.2822V28.8438H434.744V18.6035H435.899L435.961 19.4238C436.476 18.7858 437.191 18.4668 438.107 18.4668C438.996 18.4668 439.698 18.8018 440.213 19.4717C440.732 20.1416 440.992 21.0736 440.992 22.2676V22.3838ZM439.727 22.2402C439.727 21.4062 439.549 20.7477 439.194 20.2646C438.839 19.7816 438.351 19.54 437.731 19.54C436.965 19.54 436.391 19.8796 436.008 20.5586V24.0928C436.387 24.7673 436.965 25.1045 437.745 25.1045C438.351 25.1045 438.832 24.8652 439.187 24.3867C439.547 23.9036 439.727 23.1882 439.727 22.2402ZM445.572 25.1045C446.023 25.1045 446.417 24.9678 446.755 24.6943C447.092 24.4209 447.279 24.0791 447.315 23.6689H448.511C448.489 24.0928 448.343 24.4961 448.074 24.8789C447.805 25.2617 447.445 25.5671 446.994 25.7949C446.547 26.0228 446.073 26.1367 445.572 26.1367C444.565 26.1367 443.763 25.8018 443.166 25.1318C442.573 24.4574 442.277 23.5368 442.277 22.3701V22.1582C442.277 21.4382 442.409 20.7979 442.673 20.2373C442.938 19.6768 443.316 19.2415 443.808 18.9316C444.305 18.6217 444.891 18.4668 445.565 18.4668C446.394 18.4668 447.083 18.7152 447.63 19.2119C448.181 19.7087 448.475 20.3535 448.511 21.1465H447.315C447.279 20.668 447.096 20.276 446.768 19.9707C446.445 19.6608 446.044 19.5059 445.565 19.5059C444.922 19.5059 444.423 19.7383 444.068 20.2031C443.717 20.6634 443.542 21.3311 443.542 22.2061V22.4453C443.542 23.2975 443.717 23.9538 444.068 24.4141C444.419 24.8743 444.92 25.1045 445.572 25.1045ZM455.429 19.6289H452.948V26H451.683V19.6289H449.25V18.6035H455.429V19.6289ZM456.776 26V18.6035H459.661C460.645 18.6035 461.399 18.7767 461.923 19.123C462.452 19.4648 462.716 19.9684 462.716 20.6338C462.716 20.9756 462.614 21.2855 462.409 21.5635C462.204 21.8369 461.901 22.0465 461.5 22.1924C461.946 22.2972 462.304 22.5023 462.573 22.8076C462.846 23.113 462.983 23.4775 462.983 23.9014C462.983 24.5804 462.732 25.0999 462.231 25.46C461.734 25.82 461.03 26 460.119 26H456.776ZM458.041 22.7529V24.9814H460.132C460.661 24.9814 461.055 24.8835 461.315 24.6875C461.579 24.4915 461.712 24.2158 461.712 23.8604C461.712 23.1221 461.169 22.7529 460.085 22.7529H458.041ZM458.041 21.7412H459.674C460.859 21.7412 461.452 21.3949 461.452 20.7021C461.452 20.0094 460.891 19.6517 459.77 19.6289H458.041V21.7412ZM469.224 26C469.151 25.8542 469.092 25.5944 469.047 25.2207C468.459 25.8314 467.757 26.1367 466.941 26.1367C466.212 26.1367 465.613 25.9316 465.143 25.5215C464.678 25.1068 464.446 24.5827 464.446 23.9492C464.446 23.179 464.738 22.582 465.321 22.1582C465.909 21.7298 466.734 21.5156 467.796 21.5156H469.026V20.9346C469.026 20.4925 468.894 20.1416 468.63 19.8818C468.365 19.6175 467.976 19.4854 467.461 19.4854C467.009 19.4854 466.631 19.5993 466.326 19.8271C466.02 20.055 465.868 20.3307 465.868 20.6543H464.596C464.596 20.2852 464.726 19.9297 464.986 19.5879C465.25 19.2415 465.606 18.9681 466.052 18.7676C466.504 18.5671 466.998 18.4668 467.536 18.4668C468.388 18.4668 469.056 18.681 469.539 19.1094C470.022 19.5332 470.272 20.1188 470.291 20.8662V24.2705C470.291 24.9495 470.377 25.4896 470.55 25.8906V26H469.224ZM467.126 25.0361C467.522 25.0361 467.898 24.9336 468.254 24.7285C468.609 24.5234 468.866 24.2568 469.026 23.9287V22.4111H468.035C466.485 22.4111 465.711 22.8646 465.711 23.7715C465.711 24.168 465.843 24.4779 466.107 24.7012C466.371 24.9245 466.711 25.0361 467.126 25.0361ZM310.767 43.4385C310.767 42.2035 311.006 41.2327 311.485 40.5264C311.964 39.82 312.62 39.4668 313.454 39.4668C313.841 39.4668 314.181 39.5329 314.472 39.665V36.5H315.737V39.7061C316.056 39.5465 316.43 39.4668 316.858 39.4668C317.697 39.4668 318.355 39.82 318.834 40.5264C319.312 41.2327 319.551 42.2513 319.551 43.582C319.551 44.6712 319.312 45.5371 318.834 46.1797C318.36 46.8223 317.706 47.1436 316.872 47.1436C316.43 47.1436 316.051 47.0706 315.737 46.9248V49.8438H314.472V46.9453C314.172 47.0775 313.827 47.1436 313.44 47.1436C312.611 47.1436 311.957 46.8223 311.478 46.1797C311.004 45.5371 310.767 44.6576 310.767 43.541V43.4385ZM318.287 43.4385C318.287 42.5088 318.127 41.7887 317.808 41.2783C317.489 40.7633 317.049 40.5059 316.489 40.5059C316.202 40.5059 315.951 40.5514 315.737 40.6426V45.9951C315.942 46.0726 316.197 46.1113 316.503 46.1113C317.068 46.1113 317.505 45.8926 317.815 45.4551C318.13 45.0176 318.287 44.3454 318.287 43.4385ZM312.032 43.582C312.032 44.4115 312.18 45.0404 312.476 45.4688C312.772 45.8971 313.199 46.1113 313.755 46.1113C314.019 46.1113 314.258 46.0703 314.472 45.9883V40.6221C314.281 40.5446 314.046 40.5059 313.768 40.5059C313.212 40.5059 312.784 40.7542 312.483 41.251C312.182 41.7477 312.032 42.5247 312.032 43.582ZM325.984 39.6035H327.249V47H325.984V41.6064L322.573 47H321.308V39.6035H322.573V45.0039L325.984 39.6035ZM335.322 47H334.057V43.8418H330.66V47H329.388V39.6035H330.66V42.8096H334.057V39.6035H335.322V47ZM341.925 47C341.852 46.8542 341.793 46.5944 341.748 46.2207C341.16 46.8314 340.458 47.1367 339.642 47.1367C338.913 47.1367 338.314 46.9316 337.844 46.5215C337.38 46.1068 337.147 45.5827 337.147 44.9492C337.147 44.179 337.439 43.582 338.022 43.1582C338.61 42.7298 339.435 42.5156 340.497 42.5156H341.727V41.9346C341.727 41.4925 341.595 41.1416 341.331 40.8818C341.066 40.6175 340.677 40.4854 340.162 40.4854C339.711 40.4854 339.332 40.5993 339.027 40.8271C338.722 41.055 338.569 41.3307 338.569 41.6543H337.297C337.297 41.2852 337.427 40.9297 337.687 40.5879C337.951 40.2415 338.307 39.9681 338.754 39.7676C339.205 39.5671 339.699 39.4668 340.237 39.4668C341.089 39.4668 341.757 39.681 342.24 40.1094C342.723 40.5332 342.974 41.1188 342.992 41.8662V45.2705C342.992 45.9495 343.078 46.4896 343.252 46.8906V47H341.925ZM339.827 46.0361C340.223 46.0361 340.599 45.9336 340.955 45.7285C341.31 45.5234 341.568 45.2568 341.727 44.9287V43.4111H340.736C339.186 43.4111 338.412 43.8646 338.412 44.7715C338.412 45.168 338.544 45.4779 338.808 45.7012C339.073 45.9245 339.412 46.0361 339.827 46.0361ZM351.017 47H349.753V43.8418H346.355V47H345.084V39.6035H346.355V42.8096H349.753V39.6035H351.017V47ZM356.021 46.1045C356.472 46.1045 356.866 45.9678 357.204 45.6943C357.541 45.4209 357.728 45.0791 357.764 44.6689H358.961C358.938 45.0928 358.792 45.4961 358.523 45.8789C358.254 46.2617 357.894 46.5671 357.443 46.7949C356.996 47.0228 356.522 47.1367 356.021 47.1367C355.014 47.1367 354.212 46.8018 353.615 46.1318C353.022 45.4574 352.726 44.5368 352.726 43.3701V43.1582C352.726 42.4382 352.858 41.7979 353.123 41.2373C353.387 40.6768 353.765 40.2415 354.257 39.9316C354.754 39.6217 355.34 39.4668 356.014 39.4668C356.844 39.4668 357.532 39.7152 358.079 40.2119C358.63 40.7087 358.924 41.3535 358.961 42.1465H357.764C357.728 41.668 357.546 41.276 357.217 40.9707C356.894 40.6608 356.493 40.5059 356.014 40.5059C355.372 40.5059 354.873 40.7383 354.517 41.2031C354.166 41.6634 353.991 42.3311 353.991 43.2061V43.4453C353.991 44.2975 354.166 44.9538 354.517 45.4141C354.868 45.8743 355.369 46.1045 356.021 46.1045ZM360.047 43.2334C360.047 42.5088 360.189 41.8571 360.471 41.2783C360.758 40.6995 361.155 40.2529 361.661 39.9385C362.171 39.624 362.752 39.4668 363.404 39.4668C364.411 39.4668 365.225 39.8154 365.844 40.5127C366.469 41.21 366.781 42.1374 366.781 43.2949V43.3838C366.781 44.1038 366.642 44.751 366.364 45.3252C366.09 45.8949 365.696 46.3392 365.181 46.6582C364.671 46.9772 364.083 47.1367 363.418 47.1367C362.415 47.1367 361.602 46.7881 360.977 46.0908C360.357 45.3936 360.047 44.4707 360.047 43.3223V43.2334ZM361.319 43.3838C361.319 44.2041 361.508 44.8626 361.886 45.3594C362.269 45.8561 362.78 46.1045 363.418 46.1045C364.06 46.1045 364.571 45.8538 364.949 45.3525C365.327 44.8467 365.516 44.1403 365.516 43.2334C365.516 42.4222 365.323 41.766 364.935 41.2646C364.552 40.7588 364.042 40.5059 363.404 40.5059C362.78 40.5059 362.276 40.7542 361.893 41.251C361.51 41.7477 361.319 42.4587 361.319 43.3838ZM368.483 47V39.6035H371.368C372.352 39.6035 373.106 39.7767 373.63 40.123C374.159 40.4648 374.423 40.9684 374.423 41.6338C374.423 41.9756 374.321 42.2855 374.116 42.5635C373.911 42.8369 373.608 43.0465 373.207 43.1924C373.653 43.2972 374.011 43.5023 374.28 43.8076C374.553 44.113 374.69 44.4775 374.69 44.9014C374.69 45.5804 374.439 46.0999 373.938 46.46C373.441 46.82 372.737 47 371.826 47H368.483ZM369.748 43.7529V45.9814H371.839C372.368 45.9814 372.762 45.8835 373.022 45.6875C373.286 45.4915 373.419 45.2158 373.419 44.8604C373.419 44.1221 372.876 43.7529 371.792 43.7529H369.748ZM369.748 42.7412H371.381C372.566 42.7412 373.159 42.3949 373.159 41.7021C373.159 41.0094 372.598 40.6517 371.477 40.6289H369.748V42.7412ZM386.311 37.0469H387.624V47H386.311V39.3301L381.41 47H380.09V37.0469H381.41V44.7168L386.311 37.0469ZM393.885 41.627C393.885 41.2806 393.753 41.0072 393.489 40.8066C393.225 40.6016 392.862 40.499 392.402 40.499C391.955 40.499 391.582 40.6152 391.281 40.8477C390.985 41.0801 390.837 41.3535 390.837 41.668H389.579C389.579 41.0254 389.848 40.499 390.385 40.0889C390.923 39.6787 391.595 39.4736 392.402 39.4736C393.268 39.4736 393.942 39.6605 394.425 40.0342C394.908 40.4033 395.15 40.932 395.15 41.6201C395.15 41.9528 395.05 42.2581 394.849 42.5361C394.649 42.8141 394.364 43.0352 393.995 43.1992C394.856 43.4909 395.287 44.0651 395.287 44.9219C395.287 45.6009 395.025 46.1387 394.501 46.5352C393.977 46.9316 393.277 47.1299 392.402 47.1299C391.55 47.1299 390.846 46.9225 390.29 46.5078C389.738 46.0885 389.463 45.5234 389.463 44.8125H390.72C390.72 45.1725 390.88 45.4824 391.199 45.7422C391.522 45.9974 391.923 46.125 392.402 46.125C392.885 46.125 393.275 46.0133 393.571 45.79C393.867 45.5667 394.015 45.2773 394.015 44.9219C394.015 44.5072 393.89 44.2109 393.639 44.0332C393.393 43.8509 393.008 43.7598 392.484 43.7598H391.219V42.6934H392.593C393.455 42.6706 393.885 42.3151 393.885 41.627ZM403.175 43.3838C403.175 44.5094 402.918 45.4163 402.403 46.1045C401.888 46.7926 401.191 47.1367 400.311 47.1367C399.413 47.1367 398.707 46.8519 398.192 46.2822V49.8438H396.927V39.6035H398.083L398.144 40.4238C398.659 39.7858 399.375 39.4668 400.291 39.4668C401.179 39.4668 401.881 39.8018 402.396 40.4717C402.916 41.1416 403.175 42.0736 403.175 43.2676V43.3838ZM401.911 43.2402C401.911 42.4062 401.733 41.7477 401.378 41.2646C401.022 40.7816 400.534 40.54 399.915 40.54C399.149 40.54 398.575 40.8796 398.192 41.5586V45.0928C398.57 45.7673 399.149 46.1045 399.928 46.1045C400.534 46.1045 401.015 45.8652 401.371 45.3867C401.731 44.9036 401.911 44.1882 401.911 43.2402ZM409.355 47C409.282 46.8542 409.223 46.5944 409.177 46.2207C408.589 46.8314 407.888 47.1367 407.072 47.1367C406.343 47.1367 405.743 46.9316 405.274 46.5215C404.809 46.1068 404.577 45.5827 404.577 44.9492C404.577 44.179 404.868 43.582 405.452 43.1582C406.04 42.7298 406.865 42.5156 407.926 42.5156H409.157V41.9346C409.157 41.4925 409.025 41.1416 408.76 40.8818C408.496 40.6175 408.106 40.4854 407.591 40.4854C407.14 40.4854 406.762 40.5993 406.457 40.8271C406.151 41.055 405.999 41.3307 405.999 41.6543H404.727C404.727 41.2852 404.857 40.9297 405.117 40.5879C405.381 40.2415 405.737 39.9681 406.183 39.7676C406.634 39.5671 407.129 39.4668 407.667 39.4668C408.519 39.4668 409.186 39.681 409.67 40.1094C410.153 40.5332 410.403 41.1188 410.422 41.8662V45.2705C410.422 45.9495 410.508 46.4896 410.681 46.8906V47H409.355ZM407.256 46.0361C407.653 46.0361 408.029 45.9336 408.384 45.7285C408.74 45.5234 408.997 45.2568 409.157 44.9287V43.4111H408.166C406.616 43.4111 405.841 43.8646 405.841 44.7715C405.841 45.168 405.974 45.4779 406.238 45.7012C406.502 45.9245 406.842 46.0361 407.256 46.0361ZM417.189 39.6035H418.454V47H417.189V41.6064L413.778 47H412.513V39.6035H413.778V45.0039L417.189 39.6035ZM426.547 39.6035V47H425.276V40.6494H422.76L422.61 43.418C422.528 44.6895 422.314 45.5986 421.967 46.1455C421.626 46.6924 421.081 46.9772 420.334 47H419.828V45.8857L420.19 45.8584C420.6 45.8128 420.894 45.5758 421.072 45.1475C421.25 44.7191 421.364 43.9261 421.414 42.7686L421.55 39.6035H426.547ZM434.231 39.6035V47H432.96V44.1221H431.052L429.309 47H427.942L429.801 43.9307C429.327 43.7575 428.963 43.4909 428.708 43.1309C428.457 42.7663 428.332 42.3424 428.332 41.8594C428.332 41.1849 428.585 40.6426 429.09 40.2324C429.596 39.8177 430.273 39.6081 431.121 39.6035H434.231ZM429.603 41.873C429.603 42.2331 429.726 42.5247 429.972 42.748C430.218 42.9668 430.544 43.0785 430.95 43.083H432.96V40.6289H431.141C430.672 40.6289 430.298 40.7451 430.02 40.9775C429.742 41.2054 429.603 41.5039 429.603 41.873Z" fill="#272727"/>
<path d="M297.744 51.3258L292.807 49.1791L290.475 53.9923L282.034 31.3162L289.314 28.6498L297.744 51.3258Z" fill="#272727"/>
<path d="M270.339 51.3258L275.276 49.1791L277.609 53.9923L286.049 31.3162L278.769 28.6498L270.339 51.3258Z" fill="#272727"/>
<path d="M285.822 10.6402C287.301 9.41992 289.542 10.0187 290.202 11.8039C290.668 13.058 291.965 13.7924 293.285 13.5665C295.173 13.2388 296.823 14.8771 296.493 16.7526C296.265 18.0633 297.016 19.3513 298.267 19.8145C300.065 20.4698 300.668 22.7069 299.439 24.1644C298.575 25.1926 298.575 26.6727 299.439 27.7009C300.668 29.1697 300.065 31.3955 298.267 32.0508C297.005 32.514 296.265 33.802 296.493 35.1127C296.823 36.9882 295.173 38.6265 293.285 38.2988C291.965 38.0729 290.668 38.8186 290.202 40.0614C289.542 41.8466 287.29 42.4454 285.822 41.2251C284.787 40.3664 283.297 40.3664 282.261 41.2251C280.783 42.4454 278.542 41.8466 277.882 40.0614C277.415 38.8073 276.119 38.0729 274.799 38.2988C272.91 38.6265 271.261 36.9882 271.591 35.1127C271.818 33.802 271.068 32.514 269.816 32.0508C268.019 31.3955 267.416 29.1584 268.645 27.7009C269.509 26.6727 269.509 25.1926 268.645 24.1644C267.416 22.6956 268.019 20.4698 269.816 19.8145C271.079 19.3513 271.818 18.0633 271.591 16.7526C271.261 14.8771 272.91 13.2388 274.799 13.5665C276.119 13.7924 277.415 13.0467 277.882 11.8039C278.542 10.0187 280.794 9.41992 282.261 10.6402C283.297 11.4875 284.787 11.4875 285.822 10.6402Z" fill="url(#paint0_linear)"/>
<rect x="257" width="1" height="64" rx="0.5" fill="#D9E8F5"/>
<path fill-rule="evenodd" clip-rule="evenodd" d="M247 32.4339C247 39.4847 239.547 45.4508 229.463 47.0779C227.709 56.8406 221.79 64 214.775 64C206.336 64 199.54 53.7491 199.54 41.0576C199.54 38.9423 199.759 36.5559 200.252 34.1694C200.252 36.8271 200.965 39.1593 202.609 41.0033C207.487 46.4813 218.283 45.0169 226.777 37.6406C233.08 32.1627 236.313 24.9491 235.491 19.3627C242.396 22.0203 247 26.8474 247 32.4339Z" fill="url(#paint1_linear)"/>
<path fill-rule="evenodd" clip-rule="evenodd" d="M182.551 31.5661C182.551 24.5153 190.004 18.5492 200.088 16.922C201.842 7.15932 207.761 0 214.775 0C223.215 0 230.011 10.2508 230.011 22.9424C230.011 25.0576 229.792 27.4441 229.298 29.8305C229.298 27.1729 228.586 24.8407 226.942 22.9966C222.064 17.5186 211.268 18.983 202.773 26.3593C196.471 31.8373 193.238 39.0508 194.06 44.6373C187.209 42.0339 182.551 37.1525 182.551 31.5661Z" fill="url(#paint2_linear)"/>
<path fill-rule="evenodd" clip-rule="evenodd" d="M0 35.6339H1.04127C1.20568 35.6339 1.31529 35.6881 1.37009 35.8509C1.37009 35.9051 1.5345 36.122 1.80852 36.5559C2.19215 37.2068 2.57577 37.8576 2.9594 38.5085C2.9594 38.5085 3.0142 38.617 3.12381 38.7797C3.12381 38.7797 3.28822 38.4543 3.61704 37.9119C4.11027 37.0983 4.38429 36.6102 4.38429 36.5559C4.38429 36.5017 4.5487 36.2848 4.82272 35.8509C4.87752 35.7966 4.93233 35.7424 4.98713 35.6882C5.04193 35.6882 5.09674 35.6882 5.15154 35.6882H6.13801V39.756C6.13801 39.9187 6.0832 40.0271 5.9736 40.0814C5.91879 40.1356 5.86399 40.1356 5.80919 40.1356H4.98713V37.8576C4.93233 37.9119 4.71311 38.2915 4.32949 38.9966L3.83625 39.756C3.78145 39.8644 3.67184 39.9187 3.56224 39.9187H2.63057C2.52097 39.9187 2.41136 39.8644 2.35656 39.756C2.35656 39.756 2.19215 39.539 1.97293 39.1051C1.97293 39.1051 1.75372 38.7797 1.42489 38.1831C1.31529 37.9661 1.20568 37.8576 1.20568 37.7492V40.0271H0.383625C0.274018 40.0271 0.164411 39.9729 0.109607 39.9187C0.0548036 39.8644 0 39.8102 0 39.7017V35.6339ZM7.67251 40.0814C7.5629 40.0814 7.5081 40.0271 7.39849 39.9729C7.28888 39.8644 7.23408 39.756 7.23408 39.6475V35.6339H7.94653C8.05613 35.6339 8.11094 35.6339 8.22054 35.6882C8.33015 35.7966 8.38496 35.9051 8.38496 36.0136V36.7187H8.43976H10.2483C10.7963 36.7187 11.2347 36.8271 11.6732 37.0441C11.728 37.0983 11.8376 37.1526 11.9472 37.2068C12.002 37.261 12.0568 37.261 12.1116 37.3695C12.3308 37.6407 12.4404 37.9661 12.4404 38.3458C12.4404 38.7797 12.276 39.1593 11.9472 39.4848C11.8924 39.539 11.7828 39.5932 11.728 39.6475C11.3444 39.9187 10.8511 40.0271 10.2483 40.0271H7.67251V40.0814ZM8.38496 38.9424H10.4127C10.5771 38.9424 10.6867 38.9424 10.7963 38.8882C11.0155 38.7797 11.1251 38.6712 11.1251 38.4543C11.1251 38.3458 11.0703 38.2373 11.0155 38.1831L10.9607 38.1288C10.8511 38.0204 10.6867 37.9661 10.4127 37.9661H8.43976V38.9424H8.38496ZM12.824 35.6339H13.7557C14.0297 35.6881 14.1393 35.7966 14.1393 36.0136V40.0271C14.1393 40.0271 14.1393 40.0814 14.0845 40.0814H13.1529C12.8789 40.0271 12.7692 39.9187 12.7692 39.7017L12.824 35.6339C12.824 35.6881 12.824 35.6339 12.824 35.6339ZM18.3044 35.6339H20.8254C20.9898 35.6339 21.1542 35.6339 21.3734 35.6882C21.5378 35.7424 21.7022 35.7424 21.8118 35.7966C21.9215 35.8509 21.9763 35.8509 22.0859 35.9593C22.1955 36.0136 22.2503 36.1221 22.3599 36.2305C22.4147 36.2848 22.4147 36.3932 22.4695 36.4475C22.5791 36.6644 22.6339 36.9356 22.6339 37.261C22.6339 37.4237 22.6339 38.2373 22.6339 39.5932C22.6339 39.6475 22.6339 39.7017 22.5791 39.756C22.5243 39.8644 22.4147 39.9729 22.3051 40.0271C22.2503 40.0814 22.1407 40.0814 22.0859 40.0814H21.4282V37.1526C21.4282 37.0441 21.4282 36.9898 21.3734 36.9356C21.3186 36.8814 21.209 36.8271 21.1542 36.8271H18.0852C17.9756 36.8271 17.866 36.8814 17.8112 36.9898C17.8112 37.0441 17.8112 37.0441 17.8112 37.0983V40.0814H17.1535C16.9891 40.0814 16.8247 40.0271 16.7151 39.8644C16.6055 39.756 16.6055 39.6475 16.6055 39.4848V37.261C16.6055 36.6644 16.7151 36.2848 16.9891 36.0136C17.0987 35.9051 17.2083 35.8509 17.2631 35.7966C17.3179 35.7424 17.4276 35.7424 17.592 35.6882C17.7564 35.6339 17.9208 35.6339 17.9756 35.6339C18.0304 35.6339 18.14 35.6339 18.3044 35.6339ZM25.1001 35.6339H27.4018C27.7854 35.6339 28.1691 35.7424 28.4979 35.9593C28.5527 36.0136 28.6075 36.0678 28.7171 36.122C28.7171 36.122 28.7719 36.122 28.7719 36.1763C28.8815 36.2848 28.9363 36.3932 28.9911 36.4475C29.2103 36.7729 29.3199 37.1526 29.3199 37.5322V38.1288C29.3199 38.617 29.1555 38.9966 28.8815 39.3763C28.7719 39.4848 28.7171 39.539 28.6623 39.5932C28.5527 39.7017 28.4431 39.756 28.3335 39.8102C28.0595 39.9729 27.7854 40.0271 27.4566 40.0271H25.1549C24.7164 40.0271 24.3328 39.9187 24.004 39.6475C23.9492 39.5932 23.8396 39.539 23.7848 39.4305C23.6752 39.3221 23.6204 39.2136 23.5656 39.1593C23.3463 38.8339 23.2367 38.5085 23.2367 38.1288V37.478C23.2367 37.0441 23.4012 36.6644 23.6752 36.2848C23.73 36.2305 23.7848 36.1763 23.8944 36.0678C24.004 36.0136 24.0588 35.9051 24.1136 35.9051C24.3876 35.7424 24.7712 35.6339 25.1001 35.6339ZM24.3876 37.5865V38.1831C24.3876 38.3458 24.4424 38.4543 24.4972 38.5627C24.4972 38.617 24.552 38.6712 24.6068 38.7254C24.7712 38.8882 24.9357 38.9424 25.1549 38.9424H27.4018C27.6758 38.9424 27.8402 38.8339 28.0047 38.617C28.0595 38.5627 28.0595 38.5085 28.1143 38.4543C28.1691 38.3458 28.1691 38.2915 28.1691 38.1288V37.5865C28.1691 37.4237 28.1691 37.3695 28.1143 37.261C28.0595 37.0983 27.9499 36.9898 27.7854 36.8814C27.6758 36.8271 27.5662 36.7729 27.4018 36.7729H25.1549C24.8808 36.7729 24.7164 36.8814 24.552 37.0983C24.4972 37.1526 24.4972 37.2068 24.4424 37.261C24.3876 37.3695 24.3876 37.4237 24.3876 37.5865ZM30.0324 35.6339H31.0737C31.2381 35.6339 31.3477 35.6881 31.4025 35.8509C31.4025 35.9051 31.5669 36.122 31.8409 36.5559C32.2245 37.2068 32.6082 37.8576 32.9918 38.5085C32.9918 38.5085 33.0466 38.617 33.1562 38.7797C33.1562 38.7797 33.3206 38.4543 33.6494 37.9119C34.1427 37.0983 34.4167 36.6102 34.4167 36.5559C34.4167 36.5017 34.5811 36.2848 34.8551 35.8509C34.9099 35.7966 34.9647 35.7424 35.0195 35.6882C35.0743 35.6882 35.0743 35.6882 35.1839 35.6882H36.1704V39.756C36.1704 39.9187 36.1156 40.0271 36.006 40.0814C35.9512 40.1356 35.8964 40.1356 35.8416 40.1356H35.0743V37.8576C35.0195 37.9119 34.8003 38.2915 34.4167 38.9966L33.9235 39.8102C33.8686 39.9187 33.759 39.9729 33.6494 39.9729H32.7178C32.6082 39.9729 32.4986 39.9187 32.4438 39.8102C32.4438 39.8102 32.2793 39.5932 32.0601 39.1593C32.0601 39.1593 31.8409 38.8339 31.5121 38.2373C31.4025 38.0204 31.2929 37.9119 31.2929 37.8034V40.0814H30.5256C30.416 40.0814 30.3064 40.0271 30.2516 39.9729C30.1968 39.9187 30.142 39.8102 30.142 39.756L30.0324 35.6339ZM38.801 35.6339H41.1027C41.4864 35.6339 41.87 35.7424 42.1988 35.9593C42.2536 36.0136 42.3084 36.0678 42.418 36.122C42.418 36.122 42.4728 36.122 42.4728 36.1763C42.5824 36.2848 42.6372 36.3932 42.692 36.4475C42.9112 36.7729 43.0209 37.1526 43.0209 37.5322V38.1288C43.0209 38.617 42.8564 38.9966 42.5824 39.3763C42.4728 39.4848 42.418 39.539 42.3632 39.5932C42.2536 39.7017 42.144 39.756 42.0344 39.8102C41.7604 39.9729 41.4864 40.0271 41.1575 40.0271H38.8558C38.4173 40.0271 38.0337 39.9187 37.7049 39.6475C37.6501 39.5932 37.5405 39.539 37.4857 39.4305C37.3761 39.3221 37.3213 39.2136 37.2665 39.1593C37.0473 38.8339 36.9376 38.5085 36.9376 38.1288V37.478C36.9376 37.0441 37.1021 36.6644 37.3761 36.2848C37.4309 36.2305 37.4857 36.1763 37.5953 36.0678C37.7049 36.0136 37.7597 35.9051 37.8145 35.9051C38.0885 35.7424 38.4722 35.6339 38.801 35.6339ZM38.0885 37.5865V38.1831C38.0885 38.3458 38.1433 38.4543 38.1981 38.5627C38.1981 38.617 38.2529 38.6712 38.3077 38.7254C38.4722 38.8882 38.6366 38.9424 38.8558 38.9424H41.1027C41.3767 38.9424 41.5412 38.8339 41.7056 38.617C41.7604 38.5627 41.7604 38.5085 41.8152 38.4543C41.87 38.3458 41.87 38.2915 41.87 38.1288V37.5865C41.87 37.4237 41.87 37.3695 41.8152 37.261C41.7604 37.0983 41.6508 36.9898 41.4863 36.8814C41.3767 36.8271 41.2671 36.7729 41.1027 36.7729H38.8558C38.5818 36.7729 38.4174 36.8814 38.2529 37.0983C38.1981 37.1526 38.1981 37.2068 38.1433 37.261C38.0885 37.3695 38.0885 37.4237 38.0885 37.5865ZM43.2401 35.6339H44.1169C44.2265 35.6339 44.2813 35.6339 44.3361 35.6882C44.4457 35.7424 44.5006 35.7966 44.5554 35.9051C44.5554 35.9593 44.6102 36.0136 44.6102 36.0678C44.6102 36.122 44.665 36.1763 44.665 36.2848C44.7198 36.3932 44.7746 36.5559 44.8842 36.7187C44.939 36.8814 45.0486 36.9898 45.1034 37.0983C45.1582 37.1526 45.213 37.2068 45.213 37.2068C45.2678 37.261 45.3226 37.261 45.4322 37.3153C45.5418 37.3153 45.6514 37.3695 45.761 37.3695H45.8158C46.1447 37.3695 46.3091 37.3695 46.3639 37.3695V35.6882H47.1311C47.2955 35.6882 47.4599 35.7424 47.5147 35.9051C47.5696 35.9593 47.5696 36.0678 47.5696 36.1763V37.3695C47.6244 37.3695 47.7888 37.3695 48.1176 37.3695H48.2272C48.4464 37.3695 48.6108 37.3153 48.7752 37.2068C48.83 37.1526 48.8848 37.0983 48.9396 37.0441C49.0493 36.9356 49.1589 36.7729 49.2137 36.5559C49.2685 36.3932 49.3233 36.2305 49.3781 36.122C49.3781 36.0678 49.4329 36.0136 49.4329 35.9593C49.4877 35.8509 49.5425 35.7966 49.6521 35.7424C49.7069 35.6882 49.7617 35.6882 49.8165 35.6882C49.8165 35.6882 49.8713 35.6882 49.9261 35.6882H50.803C50.803 35.7966 50.7482 35.9593 50.6934 36.0678C50.5838 36.339 50.4741 36.6102 50.3645 36.8271C50.3097 36.9356 50.2001 37.0983 50.0357 37.3153C49.9809 37.3695 49.9261 37.478 49.8165 37.5322C49.7069 37.6407 49.5973 37.6949 49.5973 37.7492C49.5425 37.8034 49.4877 37.8576 49.4329 37.8576C49.4877 37.8576 49.5425 37.9661 49.7069 38.0746C49.8713 38.1831 49.9261 38.2915 49.9809 38.3458C50.0905 38.5085 50.2001 38.617 50.2549 38.7254C50.3645 38.8882 50.4741 39.0509 50.5289 39.2136C50.6386 39.3763 50.6934 39.5932 50.7482 39.8102C50.803 39.9187 50.803 40.0271 50.8578 40.1356H49.8713C49.7069 40.1356 49.5973 40.0814 49.4877 40.0271C49.4329 39.9729 49.4329 39.9187 49.3781 39.8644C49.3781 39.8644 49.3781 39.756 49.3233 39.6475C49.2685 39.4848 49.2137 39.3763 49.1589 39.2136C49.0493 39.0509 48.9944 38.8882 48.83 38.7254C48.83 38.617 48.7752 38.5627 48.7752 38.5085C48.7204 38.4543 48.6656 38.4 48.6108 38.4H48.5012H47.6244V40.0271H46.9119C46.7475 40.0271 46.6379 39.9729 46.5831 39.9187C46.4735 39.8102 46.4187 39.7017 46.4187 39.5932V38.4H45.487C45.3774 38.4 45.3226 38.4543 45.213 38.5085C45.1034 38.617 45.0486 38.7254 44.9938 38.7797C44.8842 38.9424 44.7746 39.1051 44.7198 39.3221C44.665 39.4305 44.665 39.4848 44.6102 39.5932C44.6102 39.7017 44.5554 39.8102 44.5554 39.8102C44.4457 39.9729 44.3361 40.0271 44.1169 40.0271H43.2401C43.2949 39.756 43.3497 39.539 43.4045 39.4305C43.5141 39.1593 43.6237 38.9424 43.7881 38.7254C43.8977 38.617 43.9525 38.4543 44.1169 38.2915C44.1717 38.2373 44.2265 38.1831 44.3361 38.0746C44.4457 37.9661 44.5006 37.9119 44.6102 37.8576C44.5554 37.8576 44.4457 37.7492 44.2813 37.6407C44.1717 37.5322 44.0621 37.4237 44.0621 37.3695C43.8977 37.2068 43.7881 37.0441 43.6785 36.8814C43.5689 36.7187 43.4593 36.4475 43.2949 36.0678C43.2949 35.9593 43.2401 35.7966 43.2401 35.6339ZM56.0641 35.6339C56.2285 35.6339 56.3381 35.6882 56.3929 35.7966C56.4477 35.8509 56.4477 35.9051 56.5025 35.9593C56.5025 35.9593 56.5025 36.0136 56.5025 36.0678V36.7187H52.4471V37.3695H55.2969V38.3458H52.4471V38.9966H56.5025V39.6475C56.5025 39.756 56.4477 39.8102 56.3929 39.9187C56.3381 39.9729 56.3381 39.9729 56.2833 39.9729C56.2285 40.0271 56.1189 40.0271 56.0641 40.0271H51.6798C51.625 40.0271 51.625 40.0271 51.5702 40.0271C51.4606 39.9729 51.4058 39.9187 51.351 39.8102C51.351 39.756 51.2962 39.7017 51.2962 39.6475V37.4237C51.2962 37.3153 51.2962 36.9898 51.2962 36.3932V36.122C51.2962 36.0678 51.2962 35.9593 51.351 35.9051C51.4058 35.8509 51.4606 35.7966 51.5154 35.7424C51.5702 35.7424 51.5702 35.6882 51.625 35.6882H51.6798H56.0641V35.6339ZM57.3246 35.6339H58.3659C58.5303 35.6339 58.6399 35.6881 58.6947 35.8509C58.6947 35.9051 58.8591 36.122 59.1331 36.5559C59.5167 37.2068 59.9004 37.8576 60.284 38.5085C60.284 38.5085 60.3388 38.617 60.4484 38.7797C60.4484 38.7797 60.6128 38.4543 60.9416 37.9119C61.4349 37.0983 61.7089 36.6102 61.7089 36.5559C61.7089 36.5017 61.8733 36.2848 62.1473 35.8509C62.2021 35.7966 62.2569 35.7424 62.3117 35.6882C62.3665 35.6882 62.3665 35.6882 62.4761 35.6882H63.4626V39.756C63.4626 39.9187 63.4078 40.0271 63.2982 40.0814C63.2434 40.1356 63.1886 40.1356 63.1338 40.1356H62.3665V37.8576C62.3117 37.9119 62.0925 38.2915 61.7089 38.9966L61.2157 39.8102C61.1609 39.9187 61.0512 39.9729 60.8868 39.9729H59.9552C59.8456 39.9729 59.736 39.9187 59.6812 39.8102C59.6812 39.8102 59.5167 39.5932 59.2975 39.1593C59.2975 39.1593 59.0783 38.8339 58.7495 38.2373C58.6399 38.0204 58.5303 37.9119 58.5303 37.8034V40.0814H57.763C57.6534 40.0814 57.5438 40.0271 57.489 39.9729C57.4342 39.9187 57.3794 39.8102 57.3794 39.756L57.3246 35.6339C57.2698 35.6339 57.3246 35.6339 57.3246 35.6339Z" fill="#989898"/>
<path fill-rule="evenodd" clip-rule="evenodd" d="M0.438429 43.0102H1.09607V44.6916L3.0142 43.0644C3.069 43.0102 3.12381 43.0102 3.17861 43.0102C3.17861 43.0102 3.23341 43.0102 3.28822 43.0102H4.60351C4.60351 43.0102 4.60351 43.0102 4.5487 43.0102C4.5487 43.0102 4.5487 43.0102 4.4939 43.0644C4.4939 43.0644 4.43909 43.0644 4.43909 43.1187L4.38429 43.1729L4.32949 43.2272C4.32949 43.2272 4.27468 43.2814 4.21988 43.2814C4.16508 43.2814 4.16508 43.3356 4.11027 43.3356C4.05547 43.3899 4.05547 43.3899 4.00067 43.4441C3.94586 43.4983 3.94586 43.4983 3.89106 43.5526C3.83625 43.7153 3.83625 43.7153 3.78145 43.7695C3.72665 43.8238 3.67184 43.878 3.61704 43.878C3.56224 43.9322 3.50743 43.9865 3.45263 44.0407C3.39783 44.095 3.34302 44.1492 3.23341 44.2034C3.17861 44.2577 3.12381 44.3119 3.0142 44.3661C2.9594 44.4204 2.84979 44.4746 2.79499 44.5831C2.74018 44.6373 2.63057 44.6916 2.52097 44.8C2.41136 44.8543 2.35656 44.9628 2.24695 45.017L2.63057 45.2882C2.90459 45.5051 3.17861 45.7221 3.50743 45.9933C3.83625 46.2645 4.11027 46.4814 4.38429 46.6441C4.65831 46.8611 4.76792 46.9153 4.76792 46.9695H3.45263C3.34302 46.9695 3.23341 46.9153 3.17861 46.8611L1.09607 45.2882V46.9695H0.383625C0.274018 46.9695 0.164411 46.9153 0.109607 46.8611C0.0548036 46.7526 0 46.6983 0 46.5899V43.3899C0 43.2814 0.0548036 43.2272 0.109607 43.1187C0.164411 43.0644 0.219215 43.0644 0.274018 43.0102C0.328822 43.0644 0.383625 43.0102 0.438429 43.0102ZM6.0832 43.0102C5.75438 43.0102 5.42556 43.1187 5.15154 43.2814C5.09674 43.3356 4.98713 43.3899 4.93233 43.4983C4.87752 43.6068 4.76792 43.6611 4.76792 43.7153C4.4939 43.9865 4.38429 44.3119 4.38429 44.6916V45.2339C4.38429 45.5594 4.4939 45.8848 4.65831 46.156C4.71311 46.2102 4.76792 46.3187 4.87752 46.3729C4.93233 46.5356 4.98713 46.5899 5.04193 46.6441C5.37076 46.8611 5.69958 46.9695 6.0832 46.9695H8.11094C8.38496 46.9695 8.65897 46.9153 8.87819 46.7526C8.9878 46.6983 9.0974 46.6441 9.15221 46.5356C9.20701 46.4814 9.26181 46.4272 9.37142 46.3187C9.64544 45.9933 9.75505 45.6136 9.75505 45.2339V44.6916C9.75505 44.3661 9.64544 44.0407 9.48103 43.7153C9.42622 43.6611 9.37142 43.5526 9.26181 43.4983C9.26181 43.4983 9.26181 43.4983 9.20701 43.4441C9.15221 43.3899 9.0974 43.3356 9.0426 43.2814C8.76858 43.0644 8.43976 42.956 8.05613 42.956H6.0832V43.0102ZM5.37076 44.7458C5.37076 44.6373 5.37076 44.5289 5.42556 44.4746C5.42556 44.4204 5.48036 44.3661 5.48036 44.3119C5.64477 44.1492 5.80919 44.0407 6.0284 44.0407H8.05613C8.16574 44.0407 8.27535 44.095 8.38496 44.1492C8.54937 44.2034 8.60417 44.3661 8.65897 44.4746C8.65897 44.5289 8.71378 44.6373 8.71378 44.7458V45.2339C8.71378 45.3424 8.71378 45.4509 8.65897 45.5051C8.65897 45.5594 8.60417 45.6136 8.54937 45.6678C8.38496 45.8305 8.22054 45.939 8.00133 45.939H6.0284C5.86399 45.939 5.69958 45.8848 5.53517 45.7221C5.48036 45.6678 5.42556 45.6136 5.42556 45.5594C5.37076 45.4509 5.31595 45.3424 5.31595 45.2339V44.7458H5.37076ZM10.7963 46.9695C10.6867 46.9695 10.6319 46.9153 10.5223 46.8611C10.4675 46.8068 10.4127 46.6983 10.4127 46.5899V43.3899V43.3356C10.4127 43.2814 10.4127 43.2272 10.4675 43.1729C10.5223 43.0644 10.6319 43.0102 10.7963 43.0102H14.7422C14.797 43.0102 14.8518 43.0102 14.8518 43.0102C15.0162 43.0644 15.071 43.2272 15.071 43.3899V43.9865H11.3992V44.095V46.8068H10.7963V46.9695ZM16.9343 42.956C16.8795 42.956 16.7699 42.956 16.6055 42.956C16.4959 42.956 16.3863 42.956 16.3315 43.0102C16.2219 43.0102 16.1671 43.0644 16.1123 43.0644C16.0575 43.0644 16.0027 43.1187 15.9479 43.1187C15.8931 43.1187 15.8931 43.1729 15.8383 43.2272C15.7834 43.2272 15.7834 43.2814 15.7286 43.3356C15.6738 43.3899 15.6738 43.4441 15.619 43.4441C15.5094 43.6611 15.3998 43.9322 15.3998 44.3119V44.7458C15.3998 45.0712 15.3998 45.5051 15.3998 45.9933H14.9614C14.9066 46.0475 14.9066 46.1017 14.9066 46.156V47.078C14.9066 47.1322 14.9066 47.2407 14.9066 47.2407C14.9614 47.295 14.9614 47.4034 15.071 47.4034C15.1258 47.4577 15.1806 47.4577 15.1806 47.4577H15.2354H15.8931V46.8068H19.7293V47.4577H20.387C20.4418 47.4577 20.4418 47.4577 20.4418 47.4577C20.4418 47.4577 20.4418 47.4577 20.4966 47.4577C20.661 47.4034 20.7706 47.2407 20.7706 47.078V46.1017C20.7706 46.0475 20.7706 45.9933 20.7158 45.939H20.2773V45.8306C20.2773 45.1255 20.2773 44.6373 20.2773 44.3119C20.2773 44.1492 20.2773 43.9322 20.2225 43.7695C20.2225 43.7153 20.1677 43.6068 20.1677 43.5526C20.1677 43.4983 20.1129 43.4441 20.1129 43.4441C20.1129 43.3899 20.0581 43.3356 20.0033 43.2814C19.9485 43.2272 19.8937 43.2272 19.8937 43.1729C19.8389 43.1187 19.7293 43.0644 19.6745 43.0644C19.6197 43.0102 19.5101 43.0102 19.3457 42.956C19.1265 42.9017 18.9621 42.9017 18.8525 42.9017H16.9343V42.956ZM16.4959 44.1492C16.4959 44.095 16.4959 44.0407 16.5507 43.9865C16.6055 43.9322 16.6603 43.878 16.7151 43.878H19.0169C19.0717 43.878 19.1265 43.878 19.1813 43.9865C19.1813 44.0407 19.2361 44.0407 19.2361 44.0407C19.2361 44.095 19.2361 44.1492 19.2361 44.2034V45.9933H19.1813H16.6055H16.4959V44.1492ZM23.6752 43.0102H24.4972C24.6616 43.0102 24.826 43.0644 24.9357 43.2272C24.9905 43.2814 24.9905 43.3356 25.0453 43.4441C25.0453 43.4441 25.0453 43.4441 25.0453 43.4983C25.0453 43.4983 25.2097 43.7695 25.4837 44.2577C25.5385 44.4204 25.6481 44.5289 25.7577 44.7458C26.3605 45.8306 26.6894 46.3729 26.7442 46.4272L27.073 47.0238H26.1961C25.9769 47.0238 25.8125 46.9153 25.7029 46.6983C25.6481 46.5899 25.5933 46.4814 25.5385 46.4272C25.4837 46.3729 25.4837 46.3187 25.4837 46.3187H22.7435L22.4695 46.7526C22.3599 46.9153 22.1955 46.9695 22.0311 46.9695H21.1542C21.5926 46.2102 21.9215 45.6136 22.2503 45.0712C22.4695 44.6373 22.6887 44.3119 22.8531 44.0407C23.0723 43.6068 23.2367 43.3899 23.2367 43.3899C23.2915 43.3356 23.2915 43.2814 23.3463 43.2272C23.4012 43.0644 23.5108 43.0102 23.6752 43.0102ZM24.1136 43.878L23.2367 45.4509H25.0453C24.3876 44.4204 24.1136 43.878 24.1136 43.878ZM29.0459 43.0102H33.485C33.5946 43.0102 33.7042 43.0644 33.759 43.1187C33.8138 43.1729 33.8138 43.1729 33.8138 43.2272C33.8686 43.2814 33.8686 43.3356 33.8686 43.3899V44.0407H31.7313V46.9695H31.0737C30.9641 46.9695 30.9093 46.9153 30.7996 46.8611C30.7448 46.8068 30.7448 46.6983 30.7448 46.6441V44.095H28.6623V43.5526C28.6623 43.4441 28.6623 43.3356 28.6623 43.3356C28.6623 43.2814 28.7171 43.2272 28.7719 43.1729C28.8267 43.1187 28.8267 43.1187 28.8815 43.1187C28.9363 43.0644 28.9911 43.0102 29.0459 43.0102ZM38.9654 43.0102C39.075 43.0102 39.1298 43.0644 39.2394 43.1187L39.2942 43.1729C39.2942 43.2272 39.349 43.2272 39.349 43.2272C39.349 43.2814 39.349 43.3356 39.349 43.3899V46.9153H38.6914C38.6366 46.9153 38.527 46.9153 38.4721 46.8611C38.3625 46.7526 38.3077 46.6984 38.3077 46.5356V45.8848H37.5953C36.9925 45.8848 36.6636 45.8848 36.554 45.8848H36.4992L36.3896 45.9933C36.1704 46.2645 36.006 46.4814 35.8416 46.6983C35.7868 46.7526 35.732 46.8068 35.732 46.8068C35.732 46.8068 35.732 46.8068 35.6772 46.8068C35.6772 46.8068 35.6772 46.8068 35.6224 46.8068C35.5676 46.8068 35.5128 46.8068 35.458 46.8068H34.2523C34.2523 46.8068 34.2523 46.7526 34.3071 46.7526C34.4167 46.6441 34.5263 46.5356 34.6359 46.4272C34.6907 46.3729 34.7455 46.3187 34.8003 46.2102C34.9099 46.1017 35.0743 45.939 35.2935 45.6678C35.2387 45.6678 35.1291 45.6136 35.0743 45.5594C35.0743 45.5594 35.0195 45.5594 35.0195 45.5051C34.9647 45.5051 34.9099 45.4509 34.8551 45.4509C34.8003 45.3967 34.7455 45.3967 34.7455 45.3424L34.6907 45.2882L34.5263 45.4509L34.4715 45.3967C34.4167 45.3424 34.3619 45.2882 34.3619 45.2339C34.3071 45.1797 34.3071 45.1255 34.2523 45.0712C34.1427 44.9085 34.1427 44.6916 34.1427 44.4746C34.1427 44.3119 34.1975 44.1492 34.2523 43.9865C34.3619 43.7153 34.5263 43.4983 34.8003 43.3356C34.8551 43.2814 34.9099 43.2814 34.9647 43.2272C35.0195 43.2272 35.0195 43.1729 35.0743 43.1729C35.3483 43.0644 35.6772 43.0102 36.0608 43.0102H38.9654ZM38.3077 44.0407H35.8964C35.8416 44.0407 35.8416 44.0407 35.7868 44.0407C35.732 44.0407 35.6772 44.095 35.6224 44.095C35.6224 44.095 35.5676 44.095 35.5676 44.1492C35.458 44.2577 35.4031 44.3661 35.4031 44.4746C35.4031 44.5289 35.4031 44.5831 35.458 44.6373C35.5128 44.6916 35.5676 44.7458 35.6224 44.8C35.732 44.8543 35.8416 44.9085 36.0608 44.9085H38.4173V44.0407H38.3077ZM39.7874 43.0102H40.5547C40.6643 43.0102 40.7191 43.0102 40.7739 43.0644C40.8835 43.1187 40.9383 43.1729 40.9383 43.2272C40.9383 43.2814 40.9931 43.3356 40.9931 43.3899C40.9931 43.4441 41.0479 43.4983 41.0479 43.6068C41.1027 43.7153 41.1575 43.878 41.2123 43.9865C41.2671 44.095 41.3219 44.2034 41.4315 44.3119C41.4864 44.3661 41.5412 44.4204 41.5412 44.4204C41.596 44.4746 41.6508 44.4746 41.7056 44.5289C41.7604 44.5289 41.87 44.5831 42.0344 44.5831C42.3084 44.5831 42.4728 44.5831 42.5276 44.5831V43.1187H43.2949C43.4593 43.1187 43.5689 43.1729 43.6785 43.3356C43.7333 43.3899 43.7333 43.4441 43.7333 43.5526V44.5831C43.7881 44.5831 43.9525 44.5831 44.2265 44.5831H44.2813C44.5006 44.5831 44.665 44.5289 44.7746 44.4746C44.8294 44.4204 44.8842 44.4204 44.939 44.3119C45.0486 44.2034 45.1034 44.0407 45.213 43.878C45.2678 43.7153 45.3226 43.6068 45.3774 43.4983C45.3774 43.4441 45.3774 43.3899 45.4322 43.3356C45.487 43.2272 45.5418 43.1729 45.5966 43.1187C45.6514 43.0644 45.7062 43.0644 45.7062 43.0644C45.7062 43.0644 45.761 43.0644 45.8158 43.0644H46.5831C46.5831 43.1729 46.5283 43.2814 46.4735 43.4441C46.3639 43.6611 46.3091 43.9322 46.1995 44.095C46.1447 44.2034 46.0351 44.3119 45.9254 44.5289C45.8706 44.5831 45.8158 44.6916 45.7062 44.7458C45.5966 44.8543 45.5418 44.9085 45.487 44.9628C45.4322 45.017 45.3774 45.0712 45.3226 45.0712C45.3774 45.0712 45.4322 45.1255 45.5418 45.2339C45.6514 45.3424 45.761 45.3967 45.761 45.4509C45.8706 45.5594 45.9254 45.6678 46.0351 45.7763C46.1447 45.939 46.2543 46.1017 46.2543 46.2102C46.3091 46.3729 46.4187 46.5356 46.4735 46.6983C46.5283 46.8068 46.5283 46.9153 46.5283 47.0238H45.761C45.5966 47.0238 45.487 46.9695 45.4322 46.9153C45.3774 46.8611 45.3774 46.8068 45.3226 46.8068C45.3226 46.8068 45.3226 46.7526 45.2678 46.5899C45.213 46.4814 45.1582 46.3187 45.1034 46.2102C45.0486 46.0475 44.939 45.939 44.8294 45.7763C44.7746 45.7221 44.7746 45.6678 44.7198 45.6136C44.665 45.5594 44.6102 45.5051 44.5554 45.5051H44.4457H43.6785V46.9695H43.0209C42.9112 46.9695 42.8016 46.9153 42.692 46.8611C42.5824 46.8068 42.5824 46.6983 42.5824 46.5899V45.5594H41.7604C41.6508 45.5594 41.596 45.6136 41.5412 45.6678C41.4315 45.7763 41.3767 45.8305 41.3219 45.939C41.2123 46.1017 41.1575 46.2645 41.0479 46.3729C40.9931 46.4814 40.9931 46.5356 40.9383 46.5899C40.9383 46.6983 40.8835 46.7526 40.8835 46.8068C40.8287 46.9695 40.6643 47.0238 40.4999 47.0238H39.6778C39.7326 46.8068 39.7874 46.5899 39.8422 46.4814C39.9518 46.2644 40.0615 46.0475 40.1711 45.8306C40.2259 45.7221 40.3355 45.6136 40.4451 45.4509C40.4999 45.3967 40.5547 45.3424 40.6643 45.2339C40.7739 45.1797 40.8287 45.0712 40.8835 45.0712C40.8287 45.0712 40.7739 44.9628 40.6095 44.8543C40.4999 44.7458 40.4451 44.6916 40.3903 44.6373C40.2807 44.4746 40.1711 44.3119 40.0615 44.2034C40.0615 43.9322 40.0067 43.7153 39.897 43.3899C39.8422 43.2814 39.7874 43.1729 39.7874 43.0102ZM51.1866 43.0102C51.2962 43.0102 51.4058 43.0644 51.5154 43.1729C51.5702 43.2272 51.5702 43.2814 51.5702 43.3356C51.5702 43.3356 51.5702 43.3899 51.5702 43.4441V44.0407H47.9532V44.5831H50.4741V45.4509H47.9532V46.0475H51.5702V46.5899C51.5702 46.6983 51.5154 46.7526 51.4606 46.8068C51.4058 46.8611 51.4058 46.8611 51.351 46.8611C51.2962 46.9153 51.2414 46.9153 51.1318 46.9153H47.2407C47.2407 46.9153 47.1859 46.9153 47.1311 46.9153C47.0215 46.8611 46.9667 46.8068 46.9119 46.6983C46.9119 46.6441 46.8571 46.5899 46.8571 46.5356V44.5289C46.8571 44.4204 46.8571 44.095 46.8571 43.6068V43.3899C46.8571 43.3356 46.8571 43.2814 46.9119 43.1729C46.9667 43.1187 47.0215 43.0644 47.0763 43.0644C47.1311 43.0644 47.1311 43.0102 47.1859 43.0102H47.2407H51.1866ZM54.2556 43.0102H55.7901C56.1737 43.0102 56.4477 43.0644 56.7218 43.1729C56.941 43.2814 57.1054 43.4441 57.215 43.6611C57.3246 43.878 57.3246 44.1492 57.3246 44.4204C57.3246 44.5289 57.3246 45.1797 57.3246 46.2645C57.3246 46.4272 57.3246 46.5356 57.3246 46.5356C57.3246 46.6441 57.2698 46.6983 57.215 46.7526C57.1602 46.8068 57.1602 46.8068 57.1054 46.8611C56.9958 46.9153 56.941 46.9695 56.8314 46.9695H56.2285V44.3661C56.2285 44.2577 56.1737 44.2034 56.0641 44.1492C56.0093 44.1492 56.0093 44.1492 55.9545 44.1492H53.9816C53.872 44.1492 53.7624 44.2034 53.7076 44.3119C53.7076 44.3661 53.7076 44.3661 53.7076 44.3661V46.3729C53.7076 46.4814 53.7076 46.5899 53.6528 46.6441C53.6528 46.6983 53.598 46.7526 53.5431 46.8068C53.4335 46.9153 53.2691 46.9695 53.1047 46.9695H52.0086V46.3729C52.0086 46.2645 52.0634 46.156 52.1731 46.0475C52.2279 45.9933 52.3375 45.939 52.4471 45.939H52.6663C52.6663 45.8305 52.6663 45.3424 52.6663 44.4746C52.6663 43.9865 52.7759 43.6068 52.9403 43.3899C52.9951 43.3356 53.0499 43.2814 53.0499 43.2814C53.1047 43.2272 53.2143 43.1729 53.2691 43.1729C53.3239 43.1729 53.3787 43.1187 53.4883 43.1187C53.7624 43.0644 53.9816 43.0102 54.2556 43.0102ZM59.6812 43.0102H61.7089C62.0377 43.0102 62.3665 43.1187 62.6954 43.3356C62.7502 43.3899 62.805 43.3899 62.8598 43.4983C62.8598 43.4983 62.8598 43.4983 62.9146 43.5526C63.0242 43.6611 63.079 43.7153 63.1338 43.7695C63.353 44.0407 63.4078 44.3661 63.4078 44.7458V45.2882C63.4078 45.7221 63.2982 46.0475 63.0242 46.3729C62.9146 46.4814 62.8598 46.5356 62.805 46.5899C62.6954 46.6441 62.6406 46.7526 62.5309 46.8068C62.2569 46.9153 62.0377 47.0238 61.7637 47.0238H59.736C59.3523 47.0238 59.0235 46.9153 58.6947 46.6983C58.6399 46.6441 58.5851 46.5899 58.4755 46.4814C58.3659 46.3729 58.3111 46.3187 58.2563 46.2645C58.0919 45.9933 57.9822 45.6678 57.9822 45.3424V44.8C57.9822 44.4204 58.0919 44.0407 58.3659 43.7695C58.4207 43.7153 58.4755 43.6611 58.5303 43.5526C58.5851 43.4983 58.6947 43.4441 58.7495 43.3899C59.0783 43.1187 59.3523 43.0102 59.6812 43.0102ZM59.0235 44.7458V45.2339C59.0235 45.3967 59.0783 45.5051 59.1331 45.5594C59.1331 45.6136 59.1879 45.6678 59.2427 45.7221C59.3523 45.8848 59.5167 45.939 59.736 45.939H61.7089C61.9281 45.939 62.0925 45.8305 62.2569 45.6678C62.3117 45.6136 62.3117 45.5594 62.3665 45.5051C62.4213 45.4509 62.4213 45.3424 62.4213 45.2339V44.7458C62.4213 44.6373 62.4213 44.5289 62.3665 44.4746C62.3117 44.3119 62.2021 44.2034 62.0925 44.1492C61.9829 44.095 61.8733 44.0407 61.7637 44.0407H59.736C59.5167 44.0407 59.3523 44.1492 59.1879 44.3119C59.1331 44.3661 59.1331 44.4204 59.1331 44.4746C59.0235 44.5289 59.0235 44.6373 59.0235 44.7458Z" fill="#989898"/>
<path d="M78.5885 31.2407H77.6568V53.6407H78.5885V31.2407Z" fill="#003E7A"/>
<path fill-rule="evenodd" clip-rule="evenodd" d="M5.09674 14.8068H14.3037C14.7422 14.8068 15.071 14.9695 15.2902 15.3491C15.3998 15.5118 15.4546 15.7288 15.4546 15.9457V17.8983H5.15154C4.4939 17.8983 3.94586 18.1695 3.50743 18.7118C3.23341 19.0373 3.12381 19.4712 3.12381 19.9051V21.6407C3.12381 22.183 3.28822 22.6169 3.67184 22.9966C3.83625 23.1593 4.00067 23.2678 4.11027 23.322C4.21988 23.3763 4.32949 23.4305 4.43909 23.4847C4.65831 23.5932 4.87752 23.5932 4.98713 23.5932H15.4546V25.5457C15.4546 25.8712 15.2902 26.1424 15.0162 26.4135C14.797 26.5763 14.5778 26.6847 14.3037 26.6847H5.09674C4.05547 26.6847 3.069 26.3593 2.13734 25.7085C1.97293 25.6 1.75372 25.4373 1.4797 25.1661C1.20568 24.8407 0.986465 24.6237 0.876858 24.461C0.712447 24.1898 0.548036 23.9729 0.493233 23.7559C0.164411 23.1051 0 22.3457 0 21.5322V19.9593C0 19.0915 0.219215 18.278 0.60284 17.5729C0.712447 17.3559 0.822055 17.139 1.04127 16.8678C1.04127 16.8135 1.09607 16.7593 1.15088 16.7051C1.26048 16.5966 1.31529 16.4881 1.42489 16.3796C1.75372 16.1085 1.97293 15.8915 2.19215 15.783C2.52097 15.5661 2.84979 15.3491 3.12381 15.2407C3.78145 14.9695 4.43909 14.8068 5.09674 14.8068ZM24.0588 14.8068H26.5798C27.073 14.8068 27.5114 15.0237 27.8402 15.4576C27.9499 15.5661 28.0595 15.783 28.1691 16.0542C28.1691 16.1085 28.2239 16.1085 28.2239 16.1627C28.2787 16.2169 28.7171 17.0305 29.5392 18.4407C29.7584 18.8746 30.0324 19.3085 30.3612 19.8508C32.2245 23.1593 33.211 24.8407 33.2658 24.8949L34.2523 26.6847H31.6217C30.9093 26.6847 30.416 26.3593 30.0872 25.7085C29.868 25.3288 29.7036 25.0034 29.594 24.8407C29.4844 24.678 29.4296 24.5695 29.4296 24.5695H21.209C21.209 24.5695 21.209 24.5695 21.1542 24.5695C21.1542 24.5695 21.1542 24.6237 21.0994 24.6237L20.3321 25.9796C20.0033 26.4678 19.5101 26.6847 18.9621 26.6847H16.3315C17.592 24.461 18.688 22.5627 19.6197 20.9356C20.387 19.6339 20.9898 18.6034 21.4282 17.7898C22.1407 16.5424 22.5243 15.8915 22.5243 15.8373C22.6339 15.6746 22.6887 15.5118 22.7983 15.4034C23.1819 15.0237 23.6204 14.8068 24.0588 14.8068ZM25.3193 17.3559L22.6339 22.0746H28.0047C26.2509 18.983 25.3741 17.4102 25.3193 17.3559ZM36.554 14.8068H45.2678C46.4187 14.8068 47.4599 14.9695 48.3368 15.3491C48.5012 15.4034 48.6656 15.4576 48.7204 15.5118C48.8848 15.5661 48.9944 15.6746 49.1589 15.783C49.9261 16.2169 50.4741 16.8678 50.803 17.7356C50.9674 18.1695 51.077 18.6576 51.077 19.1457V19.2542C51.077 19.8508 50.9674 20.4474 50.6934 20.9898C50.6386 21.1525 50.5289 21.3152 50.3645 21.478C50.2549 21.6407 50.1453 21.7491 49.9809 21.9119C49.9261 21.9661 49.8165 22.0746 49.7617 22.1288L49.6521 22.2373L49.5973 22.2915L49.4877 22.4C49.3781 22.4542 49.2685 22.5627 49.1041 22.6712C49.1041 22.6712 49.0493 22.6712 49.0493 22.7254C48.8848 22.7796 48.7752 22.8881 48.6108 22.9424C48.556 22.9966 48.5012 22.9966 48.4464 23.0508C48.2272 23.1593 48.008 23.2135 47.734 23.322C48.4464 24.0271 48.9396 24.5695 49.2137 24.8949C49.3781 25.1119 49.5425 25.2746 49.7617 25.4915C50.0905 25.8712 50.4193 26.1966 50.6934 26.522C50.803 26.6305 50.8578 26.6847 50.8578 26.6847H47.1311C46.9119 26.6847 46.7475 26.6847 46.6379 26.6305C46.5831 26.5763 46.5831 26.5763 46.5283 26.5763C46.4735 26.5763 46.4735 26.522 46.4187 26.522C46.3091 26.4135 46.1447 26.3051 46.0351 26.1424C45.487 25.4915 44.939 24.7864 44.2813 24.0271L43.9525 23.6474C43.9525 23.6474 43.8977 23.6474 43.8429 23.6474C43.5141 23.6474 42.418 23.6474 40.6095 23.6474H38.4173V25.6C38.4173 25.9796 38.2529 26.2508 37.9241 26.522C37.7597 26.6305 37.5405 26.739 37.2665 26.739H35.2935V16C35.2935 15.783 35.2935 15.6746 35.3483 15.5661C35.3483 15.5118 35.4031 15.4034 35.458 15.3491C35.5128 15.2949 35.5676 15.2407 35.6224 15.1864C36.006 14.9152 36.28 14.8068 36.554 14.8068ZM38.527 17.8983V20.5559H45.5966C46.1447 20.5559 46.5831 20.4474 46.8571 20.2847C47.0763 20.1763 47.2407 19.9593 47.2955 19.7424C47.3503 19.5796 47.4051 19.4169 47.4051 19.2C47.4051 18.7661 47.1859 18.4407 46.8023 18.1695C46.7475 18.1152 46.6927 18.1152 46.6379 18.061H46.5831C46.4735 18.0068 46.3091 17.9525 46.0899 17.8983C46.0351 17.8983 45.9254 17.8983 45.8158 17.8983H38.527ZM65.6548 14.8068C66.0384 14.8068 66.3124 14.9695 66.5864 15.2407C66.696 15.3491 66.7508 15.5118 66.8056 15.7288C66.8056 15.783 66.8056 15.8915 66.8056 16V17.7356H55.8997V19.4712H63.5722V22.0203H55.9545V23.8644H66.8604V25.6C66.8604 25.8712 66.7508 26.0881 66.5864 26.3593C66.4768 26.4678 66.3672 26.522 66.3124 26.5763C66.148 26.6847 65.9288 26.739 65.6548 26.739H53.9268C53.8172 26.739 53.7624 26.739 53.598 26.6847C53.3239 26.5763 53.1047 26.3593 52.9403 26.0881C52.8855 25.9254 52.8307 25.7627 52.8307 25.6V19.5254C52.8307 19.2542 52.8307 18.278 52.8307 16.7051V15.9457C52.8307 15.783 52.8855 15.5661 52.9951 15.3491C53.1047 15.1864 53.2691 15.0237 53.4335 14.9695C53.5432 14.9152 53.6528 14.861 53.7076 14.861C53.7624 14.861 53.8172 14.861 53.872 14.861H65.6548V14.8068ZM74.3137 14.8068H86.0417C86.3705 14.8068 86.6445 14.9152 86.8638 15.1864C87.0282 15.4034 87.1378 15.6746 87.1378 15.9457V17.8983H76.2319V19.2H83.8496V22.2373H76.2319V26.6305H74.2589C73.9301 26.6305 73.6013 26.4678 73.3821 26.1966C73.2177 25.9796 73.108 25.7627 73.108 25.5457V15.8915C73.108 15.7288 73.1628 15.5118 73.3273 15.2949C73.6013 14.9695 73.9301 14.8068 74.3137 14.8068ZM93.0566 14.8068H99.1946C100.236 14.8068 101.222 15.1322 102.099 15.7288C102.264 15.8373 102.428 15.9457 102.647 16.1627C102.702 16.1627 102.702 16.2169 102.757 16.2712C103.031 16.5966 103.25 16.8135 103.36 17.0305C103.962 17.8983 104.291 18.8746 104.291 19.9593V21.5864C104.291 22.8339 103.853 23.9729 103.086 24.9491C102.812 25.2203 102.592 25.4373 102.428 25.5457C102.154 25.7627 101.825 25.9796 101.551 26.1424C100.784 26.522 100.017 26.739 99.1946 26.739H93.0566C91.9605 26.739 90.9192 26.4135 89.9876 25.7085C89.8232 25.6 89.6039 25.383 89.3299 25.1118C89.0559 24.7864 88.8367 24.5695 88.7271 24.3525C88.179 23.539 87.905 22.6169 87.905 21.5864V19.8508C87.905 18.7118 88.2887 17.6271 89.0559 16.7051C89.1655 16.5966 89.3299 16.3796 89.6039 16.1085C89.878 15.8915 90.0424 15.7288 90.2616 15.6203C91.1384 15.1322 92.0701 14.8068 93.0566 14.8068ZM91.0288 19.9593V21.5322C91.0288 21.9661 91.1384 22.2915 91.3029 22.5627C91.3577 22.6712 91.4673 22.8339 91.6317 22.9966C92.0153 23.4305 92.5085 23.5932 93.1114 23.5932H99.1398C99.7974 23.5932 100.345 23.322 100.784 22.7796C100.893 22.6169 101.003 22.4542 101.058 22.2915C101.168 22.0746 101.222 21.8034 101.222 21.4237V20.0678C101.222 19.6881 101.168 19.4169 101.113 19.2542C100.948 18.8203 100.619 18.4407 100.236 18.2237C99.907 18.061 99.5782 17.9525 99.1946 17.9525H93.1114C92.4537 17.9525 91.9057 18.2237 91.4673 18.7661C91.3577 18.9288 91.248 19.0915 91.1932 19.2C91.0836 19.4169 91.0288 19.6339 91.0288 19.9593ZM107.196 14.8068H115.91C117.061 14.8068 118.102 14.9695 118.979 15.3491C119.143 15.4034 119.308 15.4576 119.362 15.5118C119.527 15.5661 119.636 15.6746 119.801 15.783C120.568 16.2169 121.116 16.8678 121.445 17.7356C121.609 18.1695 121.719 18.6576 121.719 19.1457V19.2542C121.719 19.8508 121.609 20.4474 121.335 20.9898C121.28 21.1525 121.171 21.3152 121.006 21.478C120.897 21.6407 120.787 21.7491 120.623 21.9119C120.568 21.9661 120.458 22.0746 120.404 22.1288L120.294 22.2373L120.239 22.2915L120.13 22.4C120.02 22.4542 119.91 22.5627 119.746 22.6712C119.746 22.6712 119.691 22.6712 119.691 22.7254C119.527 22.7796 119.417 22.8881 119.253 22.9424C119.198 22.9966 119.143 22.9966 119.088 23.0508C118.869 23.1593 118.65 23.2135 118.376 23.322C119.088 24.0271 119.582 24.5695 119.856 24.8949C120.02 25.1119 120.184 25.2746 120.404 25.4915C120.732 25.8712 121.061 26.1966 121.335 26.522C121.445 26.6305 121.5 26.6847 121.5 26.6847H117.773C117.554 26.6847 117.389 26.6847 117.28 26.6305C117.225 26.6305 117.225 26.5763 117.17 26.5763C117.115 26.5763 117.115 26.522 117.061 26.522C116.951 26.4135 116.787 26.3051 116.677 26.1424C116.129 25.4915 115.581 24.7864 114.923 24.0271L114.594 23.6474C114.594 23.6474 114.54 23.6474 114.485 23.6474C114.156 23.6474 113.06 23.6474 111.251 23.6474H109.059V25.6C109.059 25.9796 108.895 26.2508 108.566 26.522C108.402 26.6305 108.182 26.739 107.908 26.739H105.935V16C105.935 15.783 105.935 15.6746 105.99 15.5661C105.99 15.5118 106.045 15.4034 106.1 15.3491C106.155 15.2949 106.209 15.2407 106.264 15.1864C106.648 14.9152 106.922 14.8068 107.196 14.8068ZM109.169 17.8983V20.5559H116.239C116.787 20.5559 117.225 20.4474 117.499 20.2847C117.718 20.1763 117.883 19.9593 117.937 19.7424C117.992 19.5796 118.047 19.4169 118.047 19.2C118.047 18.7661 117.828 18.4407 117.444 18.1695C117.389 18.1152 117.335 18.1152 117.28 18.061H117.225C117.115 18.0068 116.951 17.9525 116.732 17.8983C116.677 17.8983 116.567 17.8983 116.458 17.8983H109.169ZM129.611 14.8068C129.885 14.8068 130.159 14.861 130.323 14.9695C130.433 15.0237 130.597 15.1864 130.707 15.3491L131.2 16C131.529 16.4339 131.912 16.9763 132.351 17.5186C132.789 18.1152 133.173 18.6034 133.502 19.0915C133.83 19.5254 134.05 19.7966 134.104 19.8508L137.557 15.1864C137.722 15.0237 137.886 14.9152 137.996 14.9152C138.105 14.861 138.27 14.861 138.489 14.861H141.832C141.777 14.9152 141.448 15.3491 140.845 16.1627C140.242 16.922 139.53 17.8441 138.763 18.8746C137.996 19.9051 137.283 20.7729 136.625 21.5864L135.694 22.7796V26.739H133.611C133.228 26.739 132.899 26.5763 132.68 26.2508C132.57 26.0339 132.46 25.8712 132.46 25.6542V22.7796L127.09 16.1085C127.09 16.1085 126.761 15.6746 126.158 14.9152H129.611V14.8068ZM146.49 14.8068C145.504 14.8068 144.572 15.0779 143.695 15.6746C143.531 15.783 143.312 15.9457 143.037 16.1627C142.763 16.4339 142.599 16.5966 142.489 16.7593C141.722 17.6813 141.339 18.7661 141.339 19.9051V21.6407C141.339 22.6169 141.613 23.539 142.161 24.4068C142.27 24.5695 142.435 24.8407 142.763 25.1661C143.037 25.4373 143.257 25.6542 143.421 25.7627C144.353 26.4135 145.394 26.7932 146.49 26.7932H152.628C153.45 26.7932 154.217 26.5763 154.985 26.1966C155.313 26.0339 155.588 25.8712 155.862 25.6C156.026 25.4915 156.245 25.2746 156.519 25.0034C157.341 24.0271 157.725 22.8881 157.725 21.6407V20.0135C157.725 18.9288 157.396 18.0068 156.793 17.0847C156.684 16.922 156.464 16.6508 156.19 16.3254C156.136 16.2712 156.136 16.2712 156.081 16.2169C155.862 16 155.697 15.8915 155.533 15.783C154.656 15.1864 153.669 14.861 152.628 14.861H146.49V14.8068ZM144.462 19.9593C144.462 19.6339 144.517 19.3627 144.627 19.1457C144.682 19.0373 144.736 18.8746 144.901 18.7118C145.339 18.1695 145.887 17.8983 146.545 17.8983H152.628C153.012 17.8983 153.341 18.0068 153.669 18.1695C154.108 18.4407 154.382 18.7661 154.546 19.2C154.601 19.3627 154.656 19.6339 154.656 20.0135V21.478C154.656 21.8034 154.601 22.1288 154.491 22.3457C154.437 22.5085 154.327 22.6712 154.217 22.8339C153.779 23.3763 153.231 23.6474 152.573 23.6474H146.545C145.942 23.6474 145.449 23.4305 145.065 23.0508C144.901 22.8881 144.791 22.7254 144.736 22.6169C144.572 22.3457 144.462 21.9661 144.462 21.5864V19.9593ZM163.863 26.6847C163.424 26.6847 163.096 26.6305 162.876 26.6305C162.712 26.6305 162.383 26.5763 161.89 26.4678C161.506 26.3593 161.232 26.3051 161.068 26.1966C160.794 26.0881 160.52 25.8712 160.246 25.6542C159.533 25.0034 159.205 23.9186 159.205 22.3457L159.259 16.3254C159.259 15.9457 159.369 15.5661 159.588 15.3491C159.917 14.9695 160.246 14.8068 160.739 14.8068H162.438V22.7796C162.438 22.8881 162.438 22.9966 162.493 23.1051C162.657 23.4305 162.876 23.5932 163.205 23.5932H171.152C171.371 23.5932 171.59 23.4847 171.755 23.2678C171.864 23.1593 171.919 22.9424 171.919 22.6712V14.861H173.618C173.837 14.861 174.002 14.9152 174.166 14.9695C174.495 15.1322 174.769 15.3491 174.933 15.7288C174.988 15.8373 175.043 16 175.043 16.1627C175.098 19.9051 175.098 21.9661 175.098 22.4542C175.098 23.322 174.988 24.0813 174.714 24.678C174.659 24.8407 174.55 25.0034 174.44 25.2203C174.276 25.4915 174.002 25.7085 173.728 25.9254C173.508 26.0881 173.234 26.1966 173.015 26.3051C172.741 26.4135 172.412 26.522 171.919 26.5763C171.371 26.6305 170.878 26.6847 170.494 26.6847H163.863Z" fill="#989898"/>
<path fill-rule="evenodd" clip-rule="evenodd" d="M93.769 36.5559H94.0978C94.2074 37.044 94.5362 37.3152 95.139 37.3152H100.619C101.606 37.3152 102.154 37.7491 102.154 38.5627V39.9186C102.154 40.244 101.989 40.5152 101.715 40.8406C101.441 41.1118 101.222 41.3288 101.113 41.4915C101.003 41.7084 100.948 41.9796 100.948 42.3593L101.387 49.1932C101.441 50.2237 101.332 51.0915 101.113 51.7966C100.893 52.2847 100.565 52.7186 100.071 52.9898L99.7425 52.8271V41.1661H95.3034C94.4814 41.1661 93.8786 40.9491 93.4949 40.5152C93.1113 40.0813 92.9469 39.5389 92.9469 38.9966C92.9469 38.0203 93.2209 37.2067 93.769 36.5559ZM103.25 31.8915H103.579C103.579 32.2711 103.743 32.4881 104.072 32.5966L105.168 32.9762C105.716 33.1932 106.045 33.5186 106.045 34.0067C106.045 34.2779 105.99 34.6576 105.826 35.0915L105.552 35.7423C105.333 36.2847 105.223 36.6101 105.223 36.8271C105.223 37.1525 105.442 37.3152 105.935 37.3152H109.772C110.594 37.3152 111.197 37.5322 111.525 37.9661C111.854 38.4 112.019 39.2135 112.019 40.2983V41.2745C112.019 42.1966 111.909 42.9016 111.745 43.3355C111.58 43.7694 111.142 44.3118 110.539 44.9084L109.772 45.6677C109.388 46.0474 109.114 46.3186 108.95 46.5898C108.785 46.861 108.73 47.1322 108.73 47.5118L108.785 48.3796C108.785 48.705 108.676 48.922 108.511 49.0847C108.347 49.2474 108.073 49.3559 107.799 49.3559C107.141 49.3559 106.812 48.9762 106.812 48.1627C106.812 47.5118 106.977 46.9694 107.305 46.5355C107.634 46.1016 108.018 45.6677 108.511 45.2881L109.662 44.3118C110.265 43.7694 110.594 43.2813 110.594 42.7389V42.305C110.594 41.5457 110.155 41.1661 109.224 41.1661H105.223C104.182 41.1661 103.634 40.5694 103.634 39.4305V38.5084C103.634 38.0203 103.743 37.4779 103.908 37.044L104.291 36.1762C104.346 36.0135 104.401 35.905 104.401 35.7423C104.401 35.4711 104.236 35.3084 103.962 35.2L103.195 34.8745C102.702 34.6576 102.483 34.2779 102.483 33.7355C102.538 33.1932 102.757 32.5966 103.25 31.8915ZM121.719 41.1661C120.294 41.0033 119.636 40.244 119.636 38.9966C119.636 38.0203 119.91 37.261 120.458 36.5559H120.787C120.842 37.044 121.226 37.3152 121.828 37.3152H125.171C126.432 37.3152 127.309 37.4237 127.802 37.6406C128.295 37.8576 128.679 38.2372 128.953 38.7796C129.227 39.322 129.337 40.1898 129.337 41.3288V49.0847H119.91V44.2576C119.91 43.444 120.129 42.8474 120.513 42.4135L121.719 41.1661ZM128.076 45.1796V43.1728C128.076 42.4677 127.912 41.9254 127.638 41.6542C127.309 41.3288 126.816 41.2203 126.103 41.2203H123.144L121.938 42.6847C121.554 43.1728 121.335 43.661 121.335 44.1491V45.1796H128.076ZM134.817 45.0169L134.433 44.4745C134.926 44.1491 135.2 43.8237 135.365 43.5525C135.529 43.2813 135.584 42.8474 135.584 42.3593C135.584 42.0881 135.529 41.8711 135.42 41.7627C135.31 41.6 135.2 41.4915 135.036 41.4915C134.926 41.4372 134.488 41.383 133.83 41.3288C132.899 41.2203 132.186 41.0033 131.748 40.6779C131.309 40.3525 131.09 39.7559 131.09 38.8339C131.09 38.5084 131.145 38.1288 131.255 37.6406C131.364 37.1525 131.474 36.8271 131.638 36.5559H131.967C132.077 37.0983 132.46 37.3694 133.063 37.3694L134.926 37.5322C136.132 37.6406 136.735 38.5084 136.735 40.1898V41.2203C136.735 42.4135 136.571 43.2271 136.242 43.7152C136.023 44.2576 135.529 44.6915 134.817 45.0169ZM142.818 42.9559V42.522C142.818 42.0881 142.709 41.7627 142.489 41.4915C142.27 41.2203 141.996 41.1118 141.613 41.1118C140.626 41.0033 139.968 40.7322 139.64 40.2983C139.311 39.8644 139.146 39.322 139.146 38.6711C139.146 37.8576 139.42 37.1525 139.914 36.3932H140.242C140.297 36.8271 140.681 37.0983 141.393 37.2067L142.544 37.3152C142.928 37.3694 143.257 37.4237 143.531 37.5322C143.805 37.6406 144.024 37.8576 144.188 38.183C144.353 38.5084 144.408 38.7796 144.408 39.0508C144.408 39.4305 144.243 40.0813 143.969 41.0033C143.859 41.383 143.805 41.8169 143.805 42.2508C143.805 42.6847 143.914 43.0101 144.079 43.2813C144.243 43.5525 144.682 44.0949 145.339 44.8542C145.723 45.3423 145.887 45.9389 145.887 46.644C145.887 47.5118 145.613 48.3796 145.01 49.3016H144.682L143.037 45.0169H142.983L141.503 49.0847H138.05L138.927 45.1254H140.9C141.393 45.1254 141.777 45.0169 141.996 44.8542C142.215 44.6915 142.435 44.4203 142.544 44.0949C142.709 43.8237 142.818 43.444 142.818 42.9559ZM156.081 44.2576L156.464 44.6372C157.177 45.3423 157.56 46.1559 157.56 46.9694C157.56 47.8915 157.067 48.7593 156.081 49.5186H155.807C155.861 49.1389 155.807 48.8135 155.642 48.5423C155.533 48.2711 155.313 47.9457 154.985 47.6745L149.723 42.7389C149.285 43.0644 149.121 43.444 149.121 43.8779C149.121 44.0949 149.23 44.3661 149.395 44.6372C149.559 44.9084 149.888 45.2881 150.381 45.7762C150.929 46.3186 151.258 46.7525 151.368 47.0779C151.532 47.4033 151.587 47.6745 151.587 47.8915C151.587 48.3254 151.422 48.5966 151.148 48.8135C150.874 49.0305 150.546 49.0847 150.162 49.0847H146.654V48.6508C147.257 48.5423 147.531 48.2711 147.531 47.8372C147.531 47.4576 147.531 47.1864 147.477 46.9152C147.312 46.1559 147.257 45.5593 147.257 45.2339C147.257 43.9322 147.86 42.8474 149.011 41.9796L148.134 41.1118C147.477 40.5152 147.148 39.7559 147.148 38.8881C147.148 37.9661 147.641 37.0983 148.627 36.3932H148.901C148.847 36.7186 148.901 37.044 149.011 37.3152C149.121 37.5864 149.285 37.8576 149.614 38.1288L154.272 42.4678C154.382 41.8711 154.546 41.3288 154.765 40.8949C153.505 40.5152 152.847 39.7016 152.847 38.4C152.847 37.7491 153.012 37.0983 153.286 36.3389H153.615C153.669 36.7728 154.053 36.9898 154.765 37.0983L155.642 37.2067C156.848 37.3694 157.451 38.0745 157.451 39.4305C157.451 39.9186 157.396 40.3525 157.232 40.8406C156.738 40.9491 156.3 41.0033 155.807 41.0033C155.478 41.5457 155.368 42.1423 155.368 42.7389C155.368 43.1186 155.423 43.3898 155.478 43.5525C155.697 43.8237 155.861 44.0406 156.081 44.2576ZM162.931 49.3016L162.657 49.1389V42.9559C162.657 42.4677 162.602 42.0881 162.438 41.8711C162.328 41.6542 162.164 41.4915 161.999 41.383C161.835 41.2745 161.397 41.1661 160.684 41.0576C159.479 40.7322 158.93 39.9186 158.93 38.6711C158.93 37.9661 159.204 37.261 159.698 36.5016H160.027C160.027 36.9355 160.465 37.2067 161.287 37.3152L162.273 37.4779C162.931 37.5864 163.37 37.8033 163.644 38.183C163.918 38.5627 164.027 39.105 164.027 39.8101V47.8372C164.027 48.4881 163.698 48.9762 162.931 49.3016ZM166.713 36.5559H167.041C167.096 37.044 167.48 37.3152 168.083 37.3152H173.727C174.275 37.3152 174.659 37.4237 174.878 37.6406C175.098 37.8576 175.207 38.2372 175.207 38.7254V39.5932C175.207 40.3525 174.878 40.9491 174.166 41.2203C173.673 41.4372 173.234 41.7084 172.96 41.9796C172.686 42.2508 172.522 42.7389 172.522 43.3355C172.522 43.7152 172.577 44.0949 172.631 44.4745C172.851 45.505 172.96 46.2644 172.96 46.861C172.96 47.3491 172.741 47.8915 172.357 48.3796C171.974 48.8677 171.426 49.1932 170.823 49.3559L170.658 49.0847C170.823 48.8677 170.878 48.4881 170.878 47.8915L170.823 45.4508C170.823 44.2033 171.042 43.2271 171.426 42.522C171.809 41.8711 172.193 41.383 172.631 41.1661H168.302C167.48 41.1661 166.877 40.9491 166.493 40.461C166.11 40.0271 165.945 39.4847 165.945 38.9423C165.945 38.0203 166.219 37.2067 166.713 36.5559Z" fill="#989898"/>
<defs>
<linearGradient id="paint0_linear" x1="284.042" y1="10" x2="284.042" y2="41.8653" gradientUnits="userSpaceOnUse">
<stop offset="0.0001" stop-color="#86C4FF"/>
<stop offset="0.119792" stop-color="#2A63A9"/>
<stop offset="1" stop-color="#40D1FF"/>
</linearGradient>
<linearGradient id="paint1_linear" x1="199.51" y1="41.7095" x2="247.016" y2="41.7095" gradientUnits="userSpaceOnUse">
<stop stop-color="#9F9C9B"/>
<stop offset="1" stop-color="#ECECEC"/>
</linearGradient>
<linearGradient id="paint2_linear" x1="182.539" y1="22.3126" x2="230.045" y2="22.3126" gradientUnits="userSpaceOnUse">
<stop stop-color="#102544"/>
<stop offset="1" stop-color="#2C68B1"/>
</linearGradient>
</defs>
</svg>
